# xmcd CD database file
#
# Track frame offsets:
#	150
#	57211
#	107307
#	167710
#	221948
#	263488
#
# Disc length: 4157 seconds
#
# Revision: 0
# Processed by: cddbd v1.5.2PL0 Copyright (c) Steve Scherf et al.
# Submitted via: CDex 1.51
#
DISCID=4b103b06
DTITLE=Gomer Edwin Evans - Shamanic Healing
DYEAR=2010
DGENRE=New Age
TTITLE0=Die Heilsame Reise Beginnt
TTITLE1=Traumhaft Heilsame Schwingungen
TTITLE2=Die Tranceartige Atmosphare Geniessen
TTITLE3=Ein Wunderdchones Glucksgefuhl
TTITLE4=Die Heilkraft Echter Seelennahrung
TTITLE5=Der Einklang Von Korper Geist Und Seele
EXTD=YEAR: 2010
EXTT0=
EXTT1=
EXTT2=
EXTT3=
EXTT4=
EXTT5=
PLAYORDER=
